<svg width="100%" height="100%" id="svg" viewBox="0 0 1440 700" xmlns="http://www.w3.org/2000/svg" class="transition duration-300 ease-in-out delay-150"><defs><linearGradient id="gradient" x1="0%" y1="50%" x2="100%" y2="50%"><stop offset="5%" stop-color="#9900ef"></stop><stop offset="95%" stop-color="#fcb900"></stop></linearGradient></defs><path d="M 0,700 C 0,700 0,140 0,140 C 67.62849779086892,161.10935198821795 135.25699558173784,182.21870397643593 196,179 C 256.74300441826216,175.78129602356407 310.60051546391753,148.23453608247422 367,147 C 423.39948453608247,145.76546391752578 482.3409425625921,170.84315169366718 550,155 C 617.6590574374079,139.15684830633282 694.0357142857143,82.39285714285717 749,89 C 803.9642857142857,95.60714285714283 837.5162002945508,165.58541973490424 886,177 C 934.4837997054492,188.41458026509576 997.8994845360826,141.26546391752578 1071,119 C 1144.1005154639174,96.73453608247422 1226.8858615611193,99.35272459499264 1290,107 C 1353.1141384388807,114.64727540500736 1396.5570692194403,127.32363770250367 1440,140 C 1440,140 1440,700 1440,700 Z" stroke="none" stroke-width="0" fill="url(#gradient)" fill-opacity="0.265" class="transition-all duration-300 ease-in-out delay-150 path-0"></path><defs><linearGradient id="gradient" x1="0%" y1="50%" x2="100%" y2="50%"><stop offset="5%" stop-color="#9900ef"></stop><stop offset="95%" stop-color="#fcb900"></stop></linearGradient></defs><path d="M 0,700 C 0,700 0,280 0,280 C 73.47809278350516,313.8208762886598 146.95618556701032,347.6417525773196 212,329 C 277.0438144329897,310.3582474226804 333.6533505154639,239.25386597938143 376,240 C 418.3466494845361,240.74613402061857 446.430412371134,313.34278350515467 507,328 C 567.569587628866,342.65721649484533 660.625,299.37499999999994 732,290 C 803.375,280.62500000000006 853.069587628866,305.1572164948454 914,303 C 974.930412371134,300.8427835051546 1047.0966494845359,271.9961340206185 1107,266 C 1166.9033505154641,260.0038659793815 1214.5438144329898,276.85824742268045 1268,283 C 1321.4561855670102,289.14175257731955 1380.728092783505,284.57087628865975 1440,280 C 1440,280 1440,700 1440,700 Z" stroke="none" stroke-width="0" fill="url(#gradient)" fill-opacity="0.4" class="transition-all duration-300 ease-in-out delay-150 path-1"></path><defs><linearGradient id="gradient" x1="0%" y1="50%" x2="100%" y2="50%"><stop offset="5%" stop-color="#9900ef"></stop><stop offset="95%" stop-color="#fcb900"></stop></linearGradient></defs><path d="M 0,700 C 0,700 0,420 0,420 C 37.81977172312223,401.7864506627393 75.63954344624446,383.57290132547865 149,373 C 222.36045655375554,362.42709867452135 331.26159793814435,359.49484536082474 393,387 C 454.73840206185565,414.50515463917526 469.31406480117823,472.4477172312223 529,467 C 588.6859351988218,461.5522827687777 693.4821428571429,392.7142857142858 749,373 C 804.5178571428571,353.2857142857142 810.7573637702504,382.6951399116347 871,387 C 931.2426362297496,391.3048600883653 1045.4884020618556,370.5051546391752 1109,379 C 1172.5115979381444,387.4948453608248 1185.289027982327,425.2842415316643 1232,437 C 1278.710972017673,448.7157584683357 1359.3554860088366,434.35787923416785 1440,420 C 1440,420 1440,700 1440,700 Z" stroke="none" stroke-width="0" fill="url(#gradient)" fill-opacity="0.53" class="transition-all duration-300 ease-in-out delay-150 path-2"></path><defs><linearGradient id="gradient" x1="0%" y1="50%" x2="100%" y2="50%"><stop offset="5%" stop-color="#9900ef"></stop><stop offset="95%" stop-color="#fcb900"></stop></linearGradient></defs><path d="M 0,700 C 0,700 0,560 0,560 C 77.44569219440353,542.8893593519882 154.89138438880707,525.7787187039764 206,523 C 257.10861561119293,520.2212812960236 281.88015463917526,531.7744845360825 334,532 C 386.11984536082474,532.2255154639175 465.5879970544919,521.1233431516937 535,513 C 604.4120029455081,504.8766568483063 663.7678571428572,499.7321428571429 721,518 C 778.2321428571428,536.2678571428571 833.3405743740794,577.9480854197348 896,599 C 958.6594256259206,620.0519145802652 1028.8698453608247,620.4755154639176 1096,601 C 1163.1301546391753,581.5244845360824 1227.1800441826215,542.149852724595 1284,532 C 1340.8199558173785,521.850147275405 1390.4099779086891,540.9250736377026 1440,560 C 1440,560 1440,700 1440,700 Z" stroke="none" stroke-width="0" fill="url(#gradient)" fill-opacity="1" class="transition-all duration-300 ease-in-out delay-150 path-3"></path></svg>